<svg width="40" height="40" viewBox="0 0 40 40" fill="none" xmlns="http://www.w3.org/2000/svg">
<rect width="40" height="40" rx="8" fill="#FF505B" fill-opacity="0.2"/>
<path d="M30 17V15C30 14.4696 29.7893 13.9609 29.4142 13.5858C29.0391 13.2107 28.5304 13 28 13H12C11.4696 13 10.9609 13.2107 10.5858 13.5858C10.2107 13.9609 10 14.4696 10 15V25C10 25.5304 10.2107 26.0391 10.5858 26.4142C10.9609 26.7893 11.4696 27 12 27H20M30 17H14M30 17V21M24 28.95C23.3502 28.287 22.9904 27.393 22.9998 26.4646C23.0045 26.005 23.0996 25.5508 23.2798 25.1279C23.46 24.705 23.7217 24.3217 24.05 24C24.3783 23.6783 24.7668 23.4243 25.1932 23.2527C25.6196 23.0811 26.0757 22.9952 26.5354 22.9998C26.995 23.0045 27.4492 23.0996 27.8721 23.2798C28.295 23.46 28.6783 23.7217 29 24.05L24 28.95ZM24 28.95C24.32 29.2858 24.7035 29.5547 25.1282 29.741C25.553 29.9273 26.0106 30.0273 26.4744 30.0352C26.9381 30.0431 27.3988 29.9587 27.8297 29.787C28.2606 29.6153 28.653 29.3597 28.9842 29.035C29.3155 28.7102 29.5788 28.3229 29.759 27.8955C29.9392 27.4681 30.0327 27.0092 30.034 26.5454C30.0353 26.0815 29.9443 25.6221 29.7665 25.1937C29.5886 24.7653 29.3274 24.3765 28.998 24.05" stroke="#FF505B" stroke-width="1.5" stroke-linecap="round" stroke-linejoin="round"/>
</svg>
